<?xml version="1.0" encoding="utf-8"?>
<!-- Generator: Adobe Illustrator 27.9.0, SVG Export Plug-In . SVG Version: 6.00 Build 0)  -->
<svg version="1.1" id="Layer_1" xmlns="http://www.w3.org/2000/svg" xmlns:xlink="http://www.w3.org/1999/xlink" x="0px" y="0px"
	 viewBox="0 0 86.9 28" style="enable-background:new 0 0 86.9 28;" xml:space="preserve">
<style type="text/css">
	.st0{fill:#274760;}
</style>
<path class="st0" d="M14.2,0C14.1,0,14,0,14,0.1c0,0-5.6,2.8-12.6,3.7C1.2,3.8,1,4,1,4.2V14c0,6,3.3,9.6,6.6,11.5
	c3.3,2,6.5,2.5,6.5,2.5c0,0,0.1,0,0.1,0c0,0,3.3-0.5,6.5-2.5S27.4,20,27.4,14V4.2c0-0.2-0.2-0.4-0.4-0.5c-7-0.9-12.6-3.7-12.6-3.7
	C14.3,0,14.2,0,14.2,0z M14.2,5.6c4.7,0,8.5,3.8,8.5,8.4c0,4.6-3.8,8.4-8.5,8.4c-4.7,0-8.5-3.8-8.5-8.4C5.7,9.4,9.5,5.6,14.2,5.6z
	 M12.3,9.8v2.3H9.9c-0.3,0-0.5,0.2-0.5,0.5v2.8c0,0.3,0.2,0.5,0.5,0.5h2.4v2.3c0,0.3,0.2,0.5,0.5,0.5h2.8c0.3,0,0.5-0.2,0.5-0.5
	v-2.3h2.4c0.3,0,0.5-0.2,0.5-0.5v-2.8c0-0.3-0.2-0.5-0.5-0.5h-2.4V9.8c0-0.3-0.2-0.5-0.5-0.5h-2.8C12.5,9.4,12.3,9.6,12.3,9.8z"/>
<g>
	<path class="st0" d="M31.7,20.6l1.1-2.4c1.3,1.1,3.5,1.8,5.5,1.8c2.6,0,3.7-0.9,3.7-2.2c0-3.6-10-1.2-10-7.5c0-2.7,2.2-5,6.8-5
		c2,0,4.1,0.5,5.6,1.5l-1,2.4C41.9,8.4,40.2,8,38.8,8c-2.6,0-3.6,1-3.6,2.3c0,3.6,10,1.2,10,7.4c0,2.7-2.2,5-6.8,5
		C35.7,22.6,33.1,21.8,31.7,20.6z"/>
	<path class="st0" d="M63.6,22.4l0-11.1l-5.5,9.2h-1.4l-5.5-9.1v11h-3V5.6h2.6l6.7,11.1L64,5.6h2.6l0,16.8H63.6z"/>
	<path class="st0" d="M86,5.6v16.8h-2.6L74.2,11v11.4h-3.1V5.6h2.6L82.9,17V5.6H86z"/>
</g>
</svg>
